<?xml version="1.0" encoding="UTF-8" standalone="no"?>
<svg width="20px" height="16px" viewBox="0 0 20 16" version="1.1" xmlns="http://www.w3.org/2000/svg" xmlns:xlink="http://www.w3.org/1999/xlink">
    <!-- Generator: Sketch 47.1 (45422) - http://www.bohemiancoding.com/sketch -->
    <title>Fill 1</title>
    <desc>Created with Sketch.</desc>
    <defs></defs>
    <g id="Page-1" stroke="none" stroke-width="1" fill="none" fill-rule="evenodd">
        <g id="Spilleplade" transform="translate(-1233.000000, -30.000000)" fill="#426BB3">
            <g id="Group-8" transform="translate(1180.000000, 30.000000)">
                <path d="M72.6666667,1.89404892 C71.9506068,2.21530485 71.1810862,2.43242805 70.3734099,2.53007949 C71.1978149,2.030156 71.8308719,1.23857448 72.1289989,0.295402785 C71.3575563,0.75823889 70.5030396,1.09440179 69.5935674,1.27558984 C68.8651923,0.490561622 67.8275141,0 66.6791417,0 C64.4740132,0 62.6862482,1.80849589 62.6862482,4.03913979 C62.6862482,4.35571479 62.7216276,4.66400814 62.7896814,4.95962697 C59.4712752,4.79118545 56.5292293,3.18310544 54.55994,0.739371135 C54.216254,1.33593785 54.0193536,2.02979593 54.0193536,2.77003124 C54.0193536,4.1713581 54.7243085,5.40770013 55.7956577,6.13202027 C55.1411025,6.1110641 54.525486,5.92937195 53.9871063,5.62683974 C53.9868216,5.64369109 53.9868216,5.66061446 53.9868216,5.67760984 C53.9868216,7.6346713 55.3631316,9.26723618 57.1896929,9.63825401 C56.8546205,9.73057638 56.5018939,9.7799062 56.1377063,9.7799062 C55.8804402,9.7799062 55.6302926,9.75462917 55.3865518,9.70745978 C55.8946062,11.3122271 57.3691528,12.4800115 59.1163418,12.512634 C57.7498555,13.5959456 56.0282223,14.2416981 54.1575968,14.2416981 C53.8353378,14.2416981 53.5174923,14.2226143 53.2051282,14.1853109 C54.9721069,15.3313469 57.0708835,16 59.3256998,16 C66.6698163,16 70.6858452,9.84515119 70.6858452,4.507521 C70.6858452,4.33238214 70.6820012,4.15817948 70.6743131,3.98498501 C71.4543692,3.41549568 72.131348,2.70406611 72.6666667,1.89404892" id="Fill-1"></path>
            </g>
        </g>
    </g>
</svg>