<?xml version="1.0" encoding="UTF-8" standalone="no"?>
<svg width="30px" height="24px" viewBox="0 0 30 24" version="1.1" xmlns="http://www.w3.org/2000/svg" xmlns:xlink="http://www.w3.org/1999/xlink">
    <!-- Generator: Sketch 47.1 (45422) - http://www.bohemiancoding.com/sketch -->
    <title>Fill 1</title>
    <desc>Created with Sketch.</desc>
    <defs></defs>
    <g id="Symbols" stroke="none" stroke-width="1" fill="none" fill-rule="evenodd">
        <g id="Header" transform="translate(-1107.000000, -20.000000)" fill="#28408C">
            <g id="Group-18">
                <g id="Group-17" transform="translate(233.000000, 8.000000)">
                    <g id="Group-2" transform="translate(795.000000, 12.000000)">
                        <path d="M109,2.84107337 C107.92591,3.32295727 106.771629,3.64864208 105.560115,3.79511923 C106.796722,3.045234 107.746308,1.85786171 108.193498,0.443104178 C107.036334,1.13735833 105.754559,1.64160268 104.390351,1.91338476 C103.297788,0.735842433 101.741271,0 100.018712,0 C96.7110198,0 94.0293722,2.71274384 94.0293722,6.05870968 C94.0293722,6.53357218 94.0824414,6.99601221 94.1845221,7.43944045 C89.2069128,7.18677817 84.793844,4.77465816 81.83991,1.1090567 C81.3243811,2.00390678 81.0290304,3.04469389 81.0290304,4.15504685 C81.0290304,6.25703715 82.0864627,8.1115502 83.6934865,9.19803041 C82.7116537,9.16659615 81.788229,8.89405792 80.9806595,8.44025961 C80.9802324,8.46553664 80.9802324,8.49092169 80.9802324,8.51641477 C80.9802324,11.4520069 83.0446973,13.9008543 85.7845394,14.457381 C85.2819307,14.5958646 84.7528408,14.6698593 84.2065595,14.6698593 C83.8206603,14.6698593 83.4454389,14.6319438 83.0798276,14.5611897 C83.8419093,16.9683407 86.0537292,18.7200173 88.6745127,18.768951 C86.6247833,20.3939184 84.0423334,21.3625471 81.2363952,21.3625471 C80.7530067,21.3625471 80.2762385,21.3339215 79.8076923,21.2779663 C82.4581604,22.9970204 85.6063253,24 88.9885497,24 C100.004724,24 106.028768,14.7677268 106.028768,6.7612815 C106.028768,6.49857322 106.023002,6.23726922 106.01147,5.97747752 C107.181554,5.12324353 108.197022,4.05609916 109,2.84107337" id="Fill-1"></path>
                    </g>
                </g>
            </g>
        </g>
    </g>
</svg>