<?xml version="1.0" encoding="UTF-8" standalone="no"?>
<svg width="273px" height="273px" viewBox="0 0 273 273" version="1.1" xmlns="http://www.w3.org/2000/svg" xmlns:xlink="http://www.w3.org/1999/xlink">
    <!-- Generator: Sketch 47.1 (45422) - http://www.bohemiancoding.com/sketch -->
    <title>Group</title>
    <desc>Created with Sketch.</desc>
    <defs></defs>
    <g id="Page-1" stroke="none" stroke-width="1" fill="none" fill-rule="evenodd">
        <g id="Forside" transform="translate(-842.000000, -1411.000000)">
            <g id="Group-21" transform="translate(233.000000, 1411.000000)">
                <g id="Group-19">
                    <g id="Group-18" transform="translate(66.000000, 0.000000)">
                        <g id="Group" transform="translate(543.000000, 0.000000)">
                            <path d="M272.994407,5.10516951 C272.949399,7.75624869 271.484037,70.459842 231.117243,110.82516 L179.926992,162.014673 C184.114266,173.893987 191.961254,214.317595 135.208385,271.235004 C135.119106,271.333875 135.03204,271.433484 134.934644,271.527928 C133.000751,273.464773 129.875237,273.490598 127.908141,271.603926 C127.876414,271.573675 127.849851,271.54785 127.81591,271.516861 C126.317346,270.016821 125.903414,267.704412 126.865565,265.749122 C127.054454,265.358801 144.633625,228.973422 132.287992,209.655887 L119.620659,222.322482 C119.311502,222.630164 118.971355,222.896526 118.590627,223.115666 C117.671271,223.653556 95.6510077,235.901792 66.3703436,206.62039 C37.087466,177.34194 49.3408676,155.32389 49.8743299,154.396418 C50.0942079,154.02233 50.3590945,153.675543 50.6667761,153.367861 L63.334109,140.701266 C44.0173117,128.356371 7.62898106,145.937018 7.24234997,146.12812 C5.28705918,147.088795 2.97022405,146.669699 1.47534889,145.175561 C1.27834412,144.980032 1.10126118,144.770484 0.93819731,144.541752 C-0.490271738,142.540715 -0.267442372,139.804046 1.46944613,138.065681 C58.5344235,81.0051311 99.0738734,88.870565 110.973847,93.0615279 L162.16336,41.8720149 C202.53163,1.50448306 265.237437,0.0428109639 267.88704,0.000753765656 C269.245414,-0.022857293 270.558779,0.509129372 271.520192,1.46980432 C272.483818,2.43269281 273.01064,3.74310656 272.994407,5.10516951 Z M65.9512473,236.748839 C70.0307955,236.039031 74.052054,235.188296 78.0519149,234.111779 C82.7283802,232.850801 87.1259399,231.003973 91.6563117,229.334966 C89.7585729,233.659479 87.0263307,237.347232 83.8941762,240.849047 C71.1596993,254.349407 51.7779715,260.661676 33.6402514,261.858462 C29.6477689,262.122611 25.6486459,262.174998 21.662804,261.902733 C17.223925,261.596527 13.3015379,258.797878 11.7771489,254.579615 C10.7013701,251.610525 10.8983748,247.865958 10.9345293,244.769958 C11.0127409,239.170448 11.5513682,233.577579 12.5902548,228.071775 C14.3463272,218.745407 17.510947,209.618257 22.3984361,201.459898 C27.4231645,193.067643 34.5559178,185.281896 43.6933975,181.37279 C43.2875824,182.512761 42.7910123,183.6092 42.3453536,184.729987 C39.0877653,192.956228 37.1177176,201.518926 35.8242743,210.252804 C35.0820017,215.243592 34.669546,220.297096 34.3906404,225.334368 C34.2725851,227.556759 34.1781408,229.776198 34.1220646,231.999327 C34.0836966,233.520027 34.0460665,235.736515 34.0475422,237.257952 C34.0453286,237.953741 34.9211513,238.983773 35.7748387,238.999268 C45.8183927,239.165283 56.0441947,238.473922 65.9512473,236.748839 Z" id="Combined-Shape" fill="#28408C" fill-rule="nonzero"></path>
                            <path d="M207.99759,104.912066 C196.973439,115.934003 179.107246,115.933265 168.08826,104.912804 C157.069274,93.8945556 157.068536,76.0276248 168.090474,65.0049496 C179.108722,53.9859637 196.977128,53.9859637 207.99759,65.0049496 C219.0151,76.0246734 219.0151,93.8930799 207.99759,104.912066 Z" id="Shape" fill="#FFFFFF"></path>
                        </g>
                    </g>
                </g>
            </g>
        </g>
    </g>
</svg>