<svg id="Layer_1" data-name="Layer 1" xmlns="http://www.w3.org/2000/svg" viewBox="0 0 370 370"><defs><style>.cls-1{fill:#28408c;}</style></defs><title>icon-graph-arrow</title><path class="cls-1" d="M363,25.91,270,84a2,2,0,0,0,.12,3.46l32.46,17.26-70.18,132-101.18-53.8a2,2,0,0,0-2.7.83L91.77,252.85,53.55,232.52a2,2,0,0,0-2.7.83L.94,327.2a2,2,0,0,0,.83,2.7L30.14,345a2,2,0,0,0,2.7-.83l33.88-63.71,38.22,20.32a2,2,0,0,0,2.7-.83l36.74-69.09,101.18,53.8a2,2,0,0,0,2.7-.83l86.2-162.12L366.94,139a2,2,0,0,0,2.94-1.84l-3.82-109.6A2,2,0,0,0,363,25.91Z"/></svg>