<?xml version="1.0" encoding="UTF-8" standalone="no"?>
<svg width="16px" height="16px" viewBox="0 0 16 16" version="1.1" xmlns="http://www.w3.org/2000/svg" xmlns:xlink="http://www.w3.org/1999/xlink">
    <!-- Generator: Sketch 47.1 (45422) - http://www.bohemiancoding.com/sketch -->
    <title>Combined-Shape</title>
    <desc>Created with Sketch.</desc>
    <defs></defs>
    <g id="Page-1" stroke="none" stroke-width="1" fill="none" fill-rule="evenodd">
        <g id="icon-linkedin" fill-rule="nonzero" fill="#FFFFFF">
            <path d="M14.816,0 C15.4688889,0 15.9995556,0.516444444 15.9995556,1.15377778 L15.9995556,14.8453333 C15.9995556,15.4826667 15.4688889,16 14.816,16 L1.18044444,16 C0.529333333,16 0,15.4826667 0,14.8453333 L0,1.15377778 C0,0.516444444 0.529333333,0 1.18044444,0 L14.816,0 Z M3.55911111,2.20266667 C2.79688889,2.20266667 2.18266667,2.81911111 2.18266667,3.57866667 C2.18266667,4.33866667 2.79688889,4.95511111 3.55911111,4.95511111 C4.31822222,4.95511111 4.93466667,4.33866667 4.93466667,3.57866667 C4.93466667,2.81911111 4.31822222,2.20266667 3.55911111,2.20266667 Z M2.37111111,13.6337778 L4.74622222,13.6337778 L4.74622222,5.99822222 L2.37111111,5.99822222 L2.37111111,13.6337778 Z M6.23511111,5.99822222 L6.23511111,13.6337778 L8.60533333,13.6337778 L8.60533333,9.85733333 C8.60533333,8.86088889 8.79377778,7.896 10.0284444,7.896 C11.2462222,7.896 11.2617778,9.03511111 11.2617778,9.92044444 L11.2617778,13.6337778 L13.6342222,13.6337778 L13.6342222,9.44622222 C13.6342222,7.38977778 13.1902222,5.80888889 10.788,5.80888889 C9.63333333,5.80888889 8.85866667,6.44177778 8.54222222,7.04222222 L8.50977778,7.04222222 L8.50977778,5.99822222 L6.23511111,5.99822222 Z" id="Combined-Shape"></path>
        </g>
    </g>
</svg>