<?xml version="1.0" standalone="no"?>
<!DOCTYPE svg PUBLIC "-//W3C//DTD SVG 20010904//EN"
 "http://www.w3.org/TR/2001/REC-SVG-20010904/DTD/svg10.dtd">
<svg version="1.0" xmlns="http://www.w3.org/2000/svg"
 width="320.000000pt" height="320.000000pt" viewBox="0 0 320.000000 320.000000"
 preserveAspectRatio="xMidYMid meet">
<metadata>
Created by potrace 1.11, written by Peter Selinger 2001-2013
</metadata>
<g transform="translate(0.000000,320.000000) scale(0.100000,-0.100000)"
fill="#000000" stroke="none">
<path d="M0 2633 l0 -268 265 1 c189 1 265 -2 266 -10 5 -65 3 -495 -3 -507
-7 -15 -35 -17 -245 -17 -131 0 -248 0 -260 -1 l-23 -1 0 -265 0 -265 264 0
c243 0 264 1 268 18 2 9 3 128 3 265 -1 168 2 247 9 248 6 0 126 1 267 1 l256
1 0 259 c0 175 -4 261 -11 266 -6 4 -126 7 -266 7 l-255 0 -2 245 c0 135 -2
255 -2 268 l-1 22 -265 0 -265 0 0 -267z"/>
<path d="M1069 2888 c0 -7 -1 -128 -2 -268 l-2 -255 268 1 267 1 -2 -266 -3
-266 -258 -1 c-141 0 -260 -4 -264 -7 -3 -4 -6 -124 -6 -267 l0 -260 -266 -2
-266 -3 -1 -258 c0 -173 -4 -261 -11 -265 -6 -4 -126 -7 -267 -6 l-256 1 0
-267 0 -268 265 1 c262 0 265 0 266 21 1 12 2 131 2 266 l2 245 265 0 265 1 2
259 c1 143 2 263 2 268 1 4 120 7 266 7 l265 0 -2 -267 -3 -267 -262 0 c-145
1 -263 -2 -264 -5 -1 -8 -1 -480 0 -507 1 -22 2 -22 266 -21 l265 0 0 267 0
267 251 -1 c137 -1 258 2 267 5 15 6 17 31 17 265 l-1 259 -267 3 -267 2 0
265 c0 205 3 265 13 266 54 4 497 1 508 -3 12 -5 14 -51 13 -267 l0 -261 267
0 268 0 0 -232 c0 -128 0 -249 0 -268 l1 -35 257 2 c142 1 261 2 266 2 4 1 7
120 7 266 l0 265 -266 2 -267 3 1 258 c1 142 3 261 6 265 2 4 122 7 265 6
l261 -1 0 267 0 267 -265 -1 -265 -1 -1 35 c0 19 0 140 0 268 l0 232 -267 -2
-267 -3 0 -265 0 -264 265 -1 265 0 2 -266 1 -266 -267 0 -267 0 1 251 c0 138
-1 258 -3 267 -3 14 -33 16 -255 17 -139 0 -258 1 -264 1 -10 1 -13 61 -13
266 l0 265 -265 0 c-205 0 -265 -3 -266 -12z"/>
<path d="M2134 500 l1 -265 265 0 265 0 0 265 0 265 -266 0 -265 1 0 -266z"/>
</g>
</svg>
