<?xml version="1.0" encoding="UTF-8" standalone="no"?>
<svg width="20px" height="16px" viewBox="0 0 20 16" version="1.1" xmlns="http://www.w3.org/2000/svg" xmlns:xlink="http://www.w3.org/1999/xlink">
    <!-- Generator: Sketch 47.1 (45422) - http://www.bohemiancoding.com/sketch -->
    <title>Fill-1</title>
    <desc>Created with Sketch.</desc>
    <defs></defs>
    <g id="Page-1" stroke="none" stroke-width="1" fill="none" fill-rule="evenodd">
        <g id="icon-twitter" fill-rule="nonzero" fill="#FFFFFF">
            <path d="M19.6666667,1.89404892 C18.9506068,2.21530485 18.1810862,2.43242805 17.3734099,2.53007949 C18.1978149,2.030156 18.8308719,1.23857448 19.1289989,0.295402785 C18.3575563,0.75823889 17.5030396,1.09440179 16.5935674,1.27558984 C15.8651923,0.490561622 14.8275141,0 13.6791417,0 C11.4740132,0 9.6862482,1.80849589 9.6862482,4.03913979 C9.6862482,4.35571479 9.7216276,4.66400814 9.7896814,4.95962697 C6.4712752,4.79118545 3.5292293,3.18310544 1.55994,0.739371135 C1.216254,1.33593785 1.0193536,2.02979593 1.0193536,2.77003124 C1.0193536,4.1713581 1.7243085,5.40770013 2.7956577,6.13202027 C2.1411025,6.1110641 1.525486,5.92937195 0.9871063,5.62683974 C0.9868216,5.64369109 0.9868216,5.66061446 0.9868216,5.67760984 C0.9868216,7.6346713 2.3631316,9.26723618 4.1896929,9.63825401 C3.8546205,9.73057638 3.5018939,9.7799062 3.1377063,9.7799062 C2.8804402,9.7799062 2.6302926,9.75462917 2.3865518,9.70745978 C2.8946062,11.3122271 4.3691528,12.4800115 6.1163418,12.512634 C4.7498555,13.5959456 3.0282223,14.2416981 1.1575968,14.2416981 C0.8353378,14.2416981 0.5174923,14.2226143 0.2051282,14.1853109 C1.9721069,15.3313469 4.0708835,16 6.3256998,16 C13.6698163,16 17.6858452,9.84515119 17.6858452,4.507521 C17.6858452,4.33238214 17.6820012,4.15817948 17.6743131,3.98498501 C18.4543692,3.41549568 19.131348,2.70406611 19.6666667,1.89404892" id="Fill-1"></path>
        </g>
    </g>
</svg>