<?xml version="1.0" encoding="UTF-8" standalone="no"?>
<svg width="17px" height="16px" viewBox="0 0 17 16" version="1.1" xmlns="http://www.w3.org/2000/svg" xmlns:xlink="http://www.w3.org/1999/xlink">
    <!-- Generator: Sketch 47.1 (45422) - http://www.bohemiancoding.com/sketch -->
    <title>Facebook</title>
    <desc>Created with Sketch.</desc>
    <defs></defs>
    <g id="Page-1" stroke="none" stroke-width="1" fill="none" fill-rule="evenodd">
        <g id="icon-facebook" fill-rule="nonzero" fill="#FFFFFF">
            <path d="M15.7109084,0 L1.5454665,0 C1.0600683,0 0.6666667,0.395302126 0.6666667,0.88304524 L0.6666667,15.1169192 C0.6666667,15.6046024 1.0600683,16.0000244 1.5454665,16.0000244 L9.171695,16.0000244 L9.171695,9.80396032 L7.0965819,9.80396032 L7.0965819,7.38922425 L9.171695,7.38922425 L9.171695,5.60844633 C9.171695,3.54189266 10.4277881,2.41659448 12.2624692,2.41659448 C13.1413287,2.41659448 13.8966312,2.48229832 14.1167189,2.51167321 L14.1167189,4.67138725 L12.8442788,4.67198674 C11.8465159,4.67198674 11.6532754,5.14839954 11.6532754,5.84752198 L11.6532754,7.38922425 L14.0329555,7.38922425 L13.7231383,9.80396032 L11.6532754,9.80396032 L11.6532754,16.0000244 L15.7109084,16.0000244 C16.1962469,16.0000244 16.5897082,15.6046024 16.5897082,15.1169192 L16.5897082,0.88304524 C16.5897082,0.395302126 16.1962469,0 15.7109084,0" id="Facebook"></path>
        </g>
    </g>
</svg>