<?xml version="1.0" encoding="UTF-8" standalone="no"?>
<svg width="72px" height="48px" viewBox="0 0 72 48" version="1.1" xmlns="http://www.w3.org/2000/svg" xmlns:xlink="http://www.w3.org/1999/xlink">
    <!-- Generator: Sketch 47.1 (45422) - http://www.bohemiancoding.com/sketch -->
    <title>Group 16</title>
    <desc>Created with Sketch.</desc>
    <defs></defs>
    <g id="Symbols" stroke="none" stroke-width="1" fill="none" fill-rule="evenodd">
        <g id="Header" transform="translate(-233.000000, -8.000000)">
            <g id="Group-18">
                <g id="Group-17" transform="translate(233.000000, 8.000000)">
                    <g id="Group-16">
                        <g id="Group-4" fill="#426BB3">
                            <path d="M17.3333333,7.17549553e-15 L67.1925983,5.32907052e-16 L67.1925983,-4.4408921e-16 C69.4017373,-8.49901461e-16 71.1925983,1.790861 71.1925983,4 L71.1925983,44 L71.1925983,44 C71.1925983,46.209139 69.4017373,48 67.1925983,48 L17.3333333,48 L17.3333333,48 C15.9959206,48 14.7469953,47.3315955 14.0051322,46.2188008 L0.671798823,26.2188008 L0.671798823,26.2188008 C-0.223932941,24.8752031 -0.223932941,23.1247969 0.671798823,21.7811992 L14.0051322,1.78119922 L14.0051322,1.78119922 C14.7469953,0.668404541 15.9959206,5.57474926e-15 17.3333333,5.32907052e-15 Z" id="Rectangle-3"></path>
                        </g>
                        <g id="Ikon---plade" transform="translate(23.000000, 9.000000)" fill="#FFFFFF">
                            <path d="M6,0 L12,0 L12,6 L6,6 L6,0 Z M12,6 L18,6 L18,12 L12,12 L12,6 Z M18,0 L24,0 L24,6 L18,6 L18,0 Z M24,6 L30,6 L30,12 L24,12 L24,6 Z M30,0 L36,0 L36,6 L30,6 L30,0 Z M0,6 L6,6 L6,12 L0,12 L0,6 Z M6,12 L12,12 L12,18 L6,18 L6,12 Z M18,12 L24,12 L24,18 L18,18 L18,12 Z M30,12 L36,12 L36,18 L30,18 L30,12 Z M12,18 L18,18 L18,24 L12,24 L12,18 Z M24,18 L30,18 L30,24 L24,24 L24,18 Z M0,18 L6,18 L6,24 L0,24 L0,18 Z M6,24 L12,24 L12,30 L6,30 L6,24 Z M18,24 L24,24 L24,30 L18,30 L18,24 Z M30,24 L36,24 L36,30 L30,30 L30,24 Z" id="Combined-Shape" opacity="0"></path>
                            <path d="M0,0 L6,0 L6,6 L0,6 L0,0 Z M6,6 L12,6 L12,12 L6,12 L6,6 Z M12,0 L18,0 L18,6 L12,6 L12,0 Z M18,6 L24,6 L24,12 L18,12 L18,6 Z M24,0 L30,0 L30,6 L24,6 L24,0 Z M30,6 L36,6 L36,12 L30,12 L30,6 Z M0,12 L6,12 L6,18 L0,18 L0,12 Z M12,12 L18,12 L18,18 L12,18 L12,12 Z M24,12 L30,12 L30,18 L24,18 L24,12 Z M6,18 L12,18 L12,24 L6,24 L6,18 Z M18,18 L24,18 L24,24 L18,24 L18,18 Z M30,18 L36,18 L36,24 L30,24 L30,18 Z M0,24 L6,24 L6,30 L0,30 L0,24 Z M12,24 L18,24 L18,30 L12,30 L12,24 Z M24,24 L30,24 L30,30 L24,30 L24,24 Z" id="Combined-Shape"></path>
                        </g>
                    </g>
                </g>
            </g>
        </g>
    </g>
</svg>