<?xml version="1.0" encoding="UTF-8" standalone="no"?>
<svg width="24px" height="24px" viewBox="0 0 24 24" version="1.1" xmlns="http://www.w3.org/2000/svg" xmlns:xlink="http://www.w3.org/1999/xlink">
    <!-- Generator: Sketch 47.1 (45422) - http://www.bohemiancoding.com/sketch -->
    <title>Facebook</title>
    <desc>Created with Sketch.</desc>
    <defs></defs>
    <g id="Symbols" stroke="none" stroke-width="1" fill="none" fill-rule="evenodd">
        <g id="Header" transform="translate(-1068.000000, -20.000000)" fill="#28408C">
            <g id="Group-18">
                <g id="Group-17" transform="translate(233.000000, 8.000000)">
                    <g id="Group-2" transform="translate(795.000000, 12.000000)">
                        <path d="M62.5663626,0 L41.3181997,0 C40.5901025,0 40,0.592953189 40,1.32456786 L40,22.6753788 C40,23.4069036 40.5901025,24.0000366 41.3181997,24.0000366 L52.7575425,24.0000366 L52.7575425,14.7059405 L49.6448729,14.7059405 L49.6448729,11.0838364 L52.7575425,11.0838364 L52.7575425,8.41266949 C52.7575425,5.31283899 54.6416822,3.62489172 57.3937038,3.62489172 C58.711993,3.62489172 59.8449468,3.72344748 60.1750784,3.76750982 L60.1750784,7.00708088 L58.2664183,7.00798011 C56.7697738,7.00798011 56.4799131,7.72259931 56.4799131,8.77128297 L56.4799131,11.0838364 L60.0494333,11.0838364 L59.5847075,14.7059405 L56.4799131,14.7059405 L56.4799131,24.0000366 L62.5663626,24.0000366 C63.2943704,24.0000366 63.8845623,23.4069036 63.8845623,22.6753788 L63.8845623,1.32456786 C63.8845623,0.592953189 63.2943704,0 62.5663626,0" id="Facebook"></path>
                    </g>
                </g>
            </g>
        </g>
    </g>
</svg>