<?xml version="1.0" encoding="UTF-8" standalone="no"?>
<svg width="17px" height="16px" viewBox="0 0 17 16" version="1.1" xmlns="http://www.w3.org/2000/svg" xmlns:xlink="http://www.w3.org/1999/xlink">
    <!-- Generator: Sketch 47.1 (45422) - http://www.bohemiancoding.com/sketch -->
    <title>Facebook</title>
    <desc>Created with Sketch.</desc>
    <defs></defs>
    <g id="Page-1" stroke="none" stroke-width="1" fill="none" fill-rule="evenodd">
        <g id="Spilleplade" transform="translate(-1206.000000, -30.000000)" fill="#426BB3">
            <g id="Group-8" transform="translate(1180.000000, 30.000000)">
                <path d="M41.7109084,0 L27.5454665,0 C27.0600683,0 26.6666667,0.395302126 26.6666667,0.88304524 L26.6666667,15.1169192 C26.6666667,15.6046024 27.0600683,16.0000244 27.5454665,16.0000244 L35.171695,16.0000244 L35.171695,9.80396032 L33.0965819,9.80396032 L33.0965819,7.38922425 L35.171695,7.38922425 L35.171695,5.60844633 C35.171695,3.54189266 36.4277881,2.41659448 38.2624692,2.41659448 C39.1413287,2.41659448 39.8966312,2.48229832 40.1167189,2.51167321 L40.1167189,4.67138725 L38.8442788,4.67198674 C37.8465159,4.67198674 37.6532754,5.14839954 37.6532754,5.84752198 L37.6532754,7.38922425 L40.0329555,7.38922425 L39.7231383,9.80396032 L37.6532754,9.80396032 L37.6532754,16.0000244 L41.7109084,16.0000244 C42.1962469,16.0000244 42.5897082,15.6046024 42.5897082,15.1169192 L42.5897082,0.88304524 C42.5897082,0.395302126 42.1962469,0 41.7109084,0" id="Facebook"></path>
            </g>
        </g>
    </g>
</svg>