<?xml version="1.0" encoding="UTF-8" standalone="no"?>
<svg width="24px" height="24px" viewBox="0 0 24 24" version="1.1" xmlns="http://www.w3.org/2000/svg" xmlns:xlink="http://www.w3.org/1999/xlink">
    <!-- Generator: Sketch 47.1 (45422) - http://www.bohemiancoding.com/sketch -->
    <title>Combined Shape</title>
    <desc>Created with Sketch.</desc>
    <defs></defs>
    <g id="Symbols" stroke="none" stroke-width="1" fill="none" fill-rule="evenodd">
        <g id="Header" transform="translate(-1028.000000, -20.000000)" fill="#28408C">
            <g id="Group-18">
                <g id="Group-17" transform="translate(233.000000, 8.000000)">
                    <g id="Group-2" transform="translate(795.000000, 12.000000)">
                        <path d="M22.224,0 C23.2033333,0 23.9993333,0.774666667 23.9993333,1.73066667 L23.9993333,22.268 C23.9993333,23.224 23.2033333,24 22.224,24 L1.77066667,24 C0.794,24 0,23.224 0,22.268 L0,1.73066667 C0,0.774666667 0.794,0 1.77066667,0 L22.224,0 Z M5.33866667,3.304 C4.19533333,3.304 3.274,4.22866667 3.274,5.368 C3.274,6.508 4.19533333,7.43266667 5.33866667,7.43266667 C6.47733333,7.43266667 7.402,6.508 7.402,5.368 C7.402,4.22866667 6.47733333,3.304 5.33866667,3.304 Z M3.55666667,20.4506667 L7.11933333,20.4506667 L7.11933333,8.99733333 L3.55666667,8.99733333 L3.55666667,20.4506667 Z M9.35266667,8.99733333 L9.35266667,20.4506667 L12.908,20.4506667 L12.908,14.786 C12.908,13.2913333 13.1906667,11.844 15.0426667,11.844 C16.8693333,11.844 16.8926667,13.5526667 16.8926667,14.8806667 L16.8926667,20.4506667 L20.4513333,20.4506667 L20.4513333,14.1693333 C20.4513333,11.0846667 19.7853333,8.71333333 16.182,8.71333333 C14.45,8.71333333 13.288,9.66266667 12.8133333,10.5633333 L12.7646667,10.5633333 L12.7646667,8.99733333 L9.35266667,8.99733333 Z" id="Combined-Shape"></path>
                    </g>
                </g>
            </g>
        </g>
    </g>
</svg>