<?xml version="1.0" encoding="UTF-8" standalone="no"?>
<svg width="48px" height="40px" viewBox="0 0 48 40" version="1.1" xmlns="http://www.w3.org/2000/svg" xmlns:xlink="http://www.w3.org/1999/xlink">
    <!-- Generator: Sketch 47.1 (45422) - http://www.bohemiancoding.com/sketch -->
    <title>Artboard</title>
    <desc>Created with Sketch.</desc>
    <defs>
        <rect id="path-1" x="2" y="2" width="4" height="4" rx="2"></rect>
        <filter x="-750.0%" y="-750.0%" width="1600.0%" height="1600.0%" filterUnits="objectBoundingBox" id="filter-2">
            <feOffset dx="0" dy="0" in="SourceAlpha" result="shadowOffsetOuter1"></feOffset>
            <feGaussianBlur stdDeviation="10" in="shadowOffsetOuter1" result="shadowBlurOuter1"></feGaussianBlur>
            <feColorMatrix values="0 0 0 0 0.156862745   0 0 0 0 0.250980392   0 0 0 0 0.549019608  0 0 0 1 0" type="matrix" in="shadowBlurOuter1"></feColorMatrix>
        </filter>
    </defs>
    <g id="Page-1" stroke="none" stroke-width="1" fill="none" fill-rule="evenodd">
        <g id="Artboard">
            <g id="Group-33">
                <path d="M0,0 L8,0 L8,8 L0,8 L0,0 Z M8,8 L16,8 L16,16 L8,16 L8,8 Z M16,0 L24,0 L24,8 L16,8 L16,0 Z M24,8 L32,8 L32,16 L24,16 L24,8 Z M32,0 L40,0 L40,8 L32,8 L32,0 Z M40,8 L48,8 L48,16 L40,16 L40,8 Z M0,16 L8,16 L8,24 L0,24 L0,16 Z M16,16 L24,16 L24,24 L16,24 L16,16 Z M32,16 L40,16 L40,24 L32,24 L32,16 Z M8,24 L16,24 L16,32 L8,32 L8,24 Z M24,24 L32,24 L32,32 L24,32 L24,24 Z M40,24 L48,24 L48,32 L40,32 L40,24 Z M0,32 L8,32 L8,40 L0,40 L0,32 Z M16,32 L24,32 L24,40 L16,40 L16,32 Z M32,32 L40,32 L40,40 L32,40 L32,32 Z" id="Combined-Shape" fill="#FFFFFF" opacity="0.15"></path>
                <g id="Rectangle-8">
                    <use fill="black" fill-opacity="1" filter="url(#filter-2)" xlink:href="#path-1"></use>
                    <use fill="#FFFFFF" fill-rule="evenodd" xlink:href="#path-1"></use>
                </g>
            </g>
        </g>
    </g>
</svg>